# AST/ASF file generated using VICON BodyLanguage
# -----------------------------------------------
:version 1.10
:name VICON
:units
  mass 1.0
  length 0.45
  angle deg
:documentation
   .ast/.asf automatically generated from VICON data using
   VICON BodyBuilder and BodyLanguage model FoxedUp or BRILLIANT.MOD
:root
   order TX TY TZ RX RY RZ
   axis XYZ
   position 0 0 0  
   orientation 0 0 0 
:bonedata
  begin
     id 1 
     name lhipjoint
     direction 0.537252 -0.787203 0.302774 
     length 2.29576 
     axis 0 0 0  XYZ
  end
  begin
     id 2 
     name lfemur
     direction 0.34202 -0.939693 0  
     length 7.31114  
     axis 0 0 20  XYZ
    dof rx ry rz
    limits (-160.0 20.0)
           (-70.0 70.0)
           (-60.0 70.0)
  end
  begin
     id 3 
     name ltibia
     direction 0.34202 -0.939693 0   
     length 8.36008   
     axis 0 0 20   XYZ
    dof rx
    limits (-10.0 170.0)
  end
  begin
     id 4 
     name lfoot
     direction 0.0969116 -0.266263 0.959016   
     length 2.16704   
     axis -90 7.62852e-016 20   XYZ
    dof rx rz
    limits (-45.0 90.0)
           (-70.0 20.0)
  end
  begin
     id 5 
     name ltoes
     direction 1.53563e-011 -4.21779e-011 1   
     length 1.08338   
     axis -90 7.62852e-016 20   XYZ
    dof rx
    limits (-90.0 20.0)
  end
  begin
     id 6 
     name rhipjoint
     direction -0.588228 -0.754791 0.290308   
     length 2.39434  
     axis 0 0 0  XYZ 
  end
  begin
     id 7 
     name rfemur
     direction -0.34202 -0.939693 0   
     length 7.45207   
     axis 0 0 -20   XYZ
    dof rx ry rz
    limits (-160.0 20.0)
           (-70.0 70.0)
           (-70.0 60.0)
  end
  begin
     id 8 
     name rtibia
     direction -0.34202 -0.939693 0   
     length 8.03565   
     axis 0 0 -20   XYZ
    dof rx
    limits (-10.0 170.0)
 end
 begin
     id 9 
     name rfoot
     direction -0.107009 -0.294004 0.949795   
     length 2.11509  
     axis -90 -7.62852e-016 -20   XYZ
    dof rx rz
    limits (-45.0 90.0)
           (-20.0 70.0)
  end
  begin
     id 10 
     name rtoes
     direction -1.53533e-011 -4.22004e-011 1   
     length 1.05493   
     axis -90 -7.62852e-016 -20   XYZ
    dof rx
    limits (-90.0 20.0)
  end
  begin
     id 11 
     name lowerback
     direction -0.0115208 0.997969 -0.0626515   
     length 2.03153   
     axis 0 0 0   XYZ
    dof rx ry rz
    limits (-20.0 45.0)
           (-30.0 30.0)
           (-30.0 30.0)
  end
  begin
     id 12 
     name upperback
     direction -0.00423475 0.999974 -0.00583614   
     length 2.03619   
     axis 0 0 0   XYZ
    dof rx ry rz
    limits (-20.0 45.0)
           (-30.0 30.0)
           (-30.0 30.0)
  end
  begin
     id 13 
     name thorax
     direction 0.00289429 0.999728 0.0231573   
     length 2.03921   
     axis 0 0 0   XYZ
    dof rx ry rz
    limits (-20.0 45.0)
           (-30.0 30.0)
           (-30.0 30.0)
  end
  begin
     id 14 
     name lowerneck
     direction 0.0188995 0.987777 0.154721   
     length 1.78836   
     axis 0 0 0   XYZ
    dof rx ry rz
    limits (-20.0 45.0)
           (-30.0 30.0)
           (-30.0 30.0)
  end
  begin
     id 15 
     name upperneck
     direction -0.00612612 0.992995 -0.118   
     length 1.81789   
     axis 0 0 0   XYZ
    dof rx ry rz
    limits (-20.0 45.0)
           (-30.0 30.0)
           (-30.0 30.0)
  end
  begin
     id 16
     name head
     direction -0.00420226 0.998397 -0.0564482  
     length 1.82234  
     axis 0 0 0   XYZ
    dof rx ry rz
    limits (-20.0 45.0)
           (-30.0 30.0)
           (-30.0 30.0)
  end
  begin
     id 17 
     name lclavicle
     direction 0.916488 0.396539 0.0529676  
     length 3.51732  
     axis 0 0 0   XYZ
    dof ry rz
    limits (-20.0 10.0)
           (0.0 20.0)
  end
  begin
     id 18 
     name lhumerus
     direction 1 -4.4896e-011 8.36962e-028   
     length 5.45077   
     axis 180 -30 -90   XYZ
    dof rx ry rz
    limits (-60.0 90.0)
           (-90.0 90.0)
           (-90.0 90.0)
  end
  begin
     id 19
     name lradius
     direction 1 -4.48962e-011 3.01407e-027   
     length 3.05488   
     axis 180 -30 -90   XYZ
    dof rx
    limits (-10.0 170.0)
  end
  begin
     id 20
     name lwrist
     direction 1 -4.49002e-011 4.72961e-027   
     length 1.52744   
     axis -2.72261e-015 90 90   XYZ
    dof ry
    limits (-180.0 0.0)
 end
  begin
     id 21 
     name lhand
     direction 1 -4.4899e-011 9.45681e-027   
     length 0.638818   
     axis -6.0311e-015 90 90   XYZ
    dof rx rz
    limits (-90.0 90.0)
           (-45.0 45.0)
  end
  begin
     id 22 
     name lfingers
     direction 1 -4.48871e-011 1.88632e-026   
     length 0.515032   
     axis -1.20625e-014 90 90   XYZ
    dof rx
    limits (0.0 90.0)
  end
  begin
     id 23
     name lthumb
     direction 0.707107 -6.34964e-011 0.707107   
     length 0.739485   
     axis -90 45 6.32835e-014   XYZ
    dof rx rz
    limits (-45.0 45.0)
           (-45.0 45.0)
  end
  begin
     id 24 
     name rclavicle
     direction -0.949427 0.303202 0.0815894   
     length 3.76167  
     axis 0 0 0   XYZ 
    dof ry rz
    limits (-10.0 20.0)
           (-20.0 0.0)
  end
  begin
     id 25 
     name rhumerus
     direction -1 -4.48971e-011 -6.43969e-018  
     length 4.88702   
     axis 180 30 90   XYZ
    dof rx ry rz
    limits (-90.0 60.0)
           (-90.0 90.0)
           (-90.0 90.0)
  end
  begin
     id 26 
     name rradius
     direction -1 -4.48987e-011 5.46662e-027   
     length 3.22603   
     axis 180 30 90   XYZ
    dof rx
    limits (-10.0 170.0)
  end
  begin
     id 27 
     name rwrist
     direction -1 -4.48956e-011 4.72476e-027   
     length 1.61302   
     axis -2.72261e-015 -90 -90   XYZ
    dof ry
    limits (-180.0 0.0)
  end
  begin
     id 28
     name rhand
     direction -1 -4.4889e-011 9.43571e-027   
     length 0.716293   
     axis -6.0311e-015 -90 -90   XYZ
    dof rx rz
    limits (-90.0 90.0)
           (-45.0 45.0)
  end
  begin
     id 29
     name rfingers
     direction -1 -4.48887e-011 1.88701e-026   
     length 0.577494   
     axis -1.20625e-014 -90 -90   XYZ
    dof rx
    limits (0.0 90.0)
  end
  begin
     id 30
     name rthumb
     direction -0.707107 -6.34825e-011 0.707107   
     length 0.829169   
     axis -90 -45 -6.32835e-014   XYZ
    dof rx rz
    limits (-45.0 45.0)
           (-45.0 45.0)
  end
:hierarchy
  begin
    root lhipjoint rhipjoint lowerback
    lhipjoint lfemur
    lfemur ltibia
    ltibia lfoot
    lfoot ltoes
    rhipjoint rfemur
    rfemur rtibia
    rtibia rfoot
    rfoot rtoes
    lowerback upperback
    upperback thorax
    thorax lowerneck lclavicle rclavicle
    lowerneck upperneck
    upperneck head
    lclavicle lhumerus
    lhumerus lradius
    lradius lwrist
    lwrist lhand lthumb
    lhand lfingers
    rclavicle rhumerus
    rhumerus rradius
    rradius rwrist
    rwrist rhand rthumb
    rhand rfingers
  end

#!OML:ASF F:\VICON\USERDATA\INSTALL\rory3\rory3.ASF
:FULLY-SPECIFIED
:DEGREES
22
root 1.82946 18.4603 0.583783 102.295 87.0114 91.4825
lowerback -11.5609 -2.16772 -2.3408
upperback -4.39491 -2.45425 0.144625
thorax 1.99182 -1.13473 1.14744
lowerneck -16.655 4.31237 5.99586
upperneck 27.1431 6.68961 -5.95054
head 12.1045 3.04679 -2.18189
rclavicle -1.53934e-014 -6.36111e-015
rhumerus -32.6065 4.30068 -90.4121
rradius 27.4146
rwrist 7.10582
rhand -14.5751 8.56825
rfingers 7.12502
rthumb 11.5746 -21.0921
lclavicle -1.53934e-014 -6.36111e-015
lhumerus -35.8404 -10.8279 90.9489
lradius 32.2529
lwrist 10.4221
lhand -7.39339 26.8717
lfingers 7.12502
lthumb 18.4924 56.0127
rfemur -9.98394 -4.63309 15.2052
rtibia 12.933
rfoot -14.3042 -2.68148
rtoes -13.7386
lfemur -9.65732 8.03223 -19.3948
ltibia 13.1621
lfoot -13.4549 -0.846915
ltoes -27.5765
23
root 1.83192 18.4611 0.583107 101.252 87.0125 90.4749
lowerback -11.6168 -2.15756 -2.28303
upperback -4.37741 -2.44622 0.159721
thorax 2.03851 -1.13176 1.12957
lowerneck -16.532 4.80683 6.3465
upperneck 27.6799 7.49302 -6.27243
head 12.3835 3.41396 -2.23712
rclavicle -9.23106e-015 4.96962e-015
rhumerus -32.4846 4.53455 -90.5213
rradius 27.1464
rwrist 6.22632
rhand -15.2067 9.1599
rfingers 7.12502
rthumb 10.9654 -20.5337
lclavicle -9.23106e-015 4.96962e-015
lhumerus -35.8764 -10.8643 90.972
lradius 32.2008
lwrist 10.3987
lhand -7.6213 26.5975
lfingers 7.12502
lthumb 18.2732 55.7591
rfemur -9.94352 -4.58088 15.1945
rtibia 12.921
rfoot -14.3512 -2.69661
rtoes -13.7332
lfemur -9.61389 8.03293 -19.3927
ltibia 13.1924
lfoot -13.4799 -0.787878
ltoes -27.5286
24
root 1.83593 18.4609 0.580985 100.959 86.9769 90.1828
lowerback -11.7248 -2.17125 -2.22357
upperback -4.38177 -2.46698 0.167685
thorax 2.09142 -1.14228 1.09819
lowerneck -16.2063 5.31223 6.69777
upperneck 28.0065 8.33085 -6.64441
head 12.5518 3.79462 -2.30661
rclavicle -7.74018e-015 -5.1684e-015
rhumerus -32.3961 4.38005 -90.411
rradius 27.1095
rwrist 6.86199
rhand -14.902 8.74838
rfingers 7.12502
rthumb 11.2593 -20.9294
lclavicle -7.74018e-015 -5.1684e-015
lhumerus -35.9367 -10.9305 90.9968
lradius 32.1617
lwrist 10.3209
lhand -7.63954 26.4246
lfingers 7.12502
lthumb 18.2556 55.5879
rfemur -9.90827 -4.53133 15.1458
rtibia 12.8877
rfoot -14.3382 -2.73712
rtoes -13.8922
lfemur -9.62516 8.03272 -19.435
ltibia 13.2485
lfoot -13.4919 -0.830016
ltoes -27.3208
25
root 1.84368 18.4623 0.578982 99.6384 86.9789 88.8581
lowerback -11.8801 -2.10933 -2.10181
upperback -4.373 -2.39198 0.133005
thorax 2.17596 -1.10596 0.998987
lowerneck -15.8526 5.75907 7.17221
upperneck 28.3652 9.06801 -7.029
head 12.7349 4.14351 -2.41885
rclavicle 1.43622e-014 3.57812e-015
rhumerus -32.41 4.23349 -90.3918
rradius 27.0201
rwrist 6.49113
rhand -15.2905 9.24982
rfingers 7.12502
rthumb 10.8846 -20.4481
lclavicle 1.43622e-014 3.57812e-015
lhumerus -35.9588 -11.081 90.9806
lradius 32.0861
lwrist 10.1852
lhand -7.48293 26.1821
lfingers 7.12502
lthumb 18.4063 55.3312
rfemur -9.87619 -4.57532 15.1297
rtibia 12.8447
rfoot -14.2826 -2.61524
rtoes -14.0637
lfemur -9.62435 8.16503 -19.4588
ltibia 13.3271
lfoot -13.5092 -0.871604
ltoes -27.7454
26
root 1.85169 18.4656 0.578499 97.9811 86.9306 87.2532
lowerback -11.9873 -2.04342 -2.07395
upperback -4.33851 -2.30426 0.104812
thorax 2.26498 -1.06367 0.962251
lowerneck -15.5144 6.19524 7.59612
upperneck 28.7828 9.81067 -7.37008
head 12.9504 4.49543 -2.50432
rclavicle 1.64743e-014 1.63003e-014
rhumerus -32.3129 3.88677 -90.2259
rradius 27.0459
rwrist 7.02706
rhand -14.9375 8.80808
rfingers 7.12502
rthumb 11.2251 -20.8716
lclavicle 1.64743e-014 1.63003e-014
lhumerus -35.9902 -11.3506 91.0497
lradius 32.0122
lwrist 10.1062
lhand -7.37683 26.1879
lfingers 7.12502
lthumb 18.5084 55.3274
rfemur -9.7793 -4.58295 15.0606
rtibia 12.8012
rfoot -14.2588 -2.53741
rtoes -14.2601
lfemur -9.53817 8.25971 -19.534
ltibia 13.414
lfoot -13.621 -0.819573
ltoes -28.6369
27
root 1.85564 18.4666 0.578725 97.3793 86.927 86.6861
lowerback -12.0409 -2.01288 -2.01612
upperback -4.34491 -2.2687 0.115457
thorax 2.28453 -1.04595 0.944297
lowerneck -15.125 6.63494 7.99415
upperneck 29.1979 10.5982 -7.74712
head 13.1696 4.86279 -2.59212
rclavicle -1.91082e-014 7.55382e-015
rhumerus -32.3309 3.99485 -90.2835
rradius 27.0412
rwrist 6.47255
rhand -15.2864 8.84899
rfingers 7.12502
rthumb 10.8885 -20.8487
lclavicle -1.91082e-014 7.55382e-015
lhumerus -36.0769 -11.502 91.1078
lradius 31.9645
lwrist 10.0488
lhand -7.30096 26.1628
lfingers 7.12502
lthumb 18.5813 55.2953
rfemur -9.65451 -4.48551 15.043
rtibia 12.6726
rfoot -14.2445 -2.60815
rtoes -14.0901
lfemur -9.55849 8.31067 -19.5413
ltibia 13.5964
lfoot -13.7823 -0.773782
ltoes -29.3735
28
root 1.85901 18.4673 0.576348 97.4539 86.8865 86.7534
lowerback -12.1389 -2.00394 -1.96575
upperback -4.35204 -2.2597 0.136906
thorax 2.329 -1.04129 0.936724
lowerneck -14.6395 7.08257 8.32077
upperneck 29.4866 11.4165 -8.11099
head 13.3229 5.24134 -2.65867
rclavicle -8.39865e-015 -9.14409e-015
rhumerus -32.3637 4.22864 -90.3637
rradius 27.0973
rwrist 5.62369
rhand -15.7948 8.98757
rfingers 7.12502
rthumb 10.3981 -20.7353
lclavicle -8.39865e-015 -9.14409e-015
lhumerus -36.1821 -11.555 91.1644
lradius 32.0494
lwrist 9.98697
lhand -7.14372 26.2239
lfingers 7.12502
lthumb 18.7326 55.3419
rfemur -9.53707 -4.56487 14.9945
rtibia 12.4536
rfoot -14.1378 -2.60174
rtoes -14.0773
lfemur -9.68209 8.32212 -19.5907
ltibia 13.8518
lfoot -13.9039 -0.795942
ltoes -29.2104
29
root 1.86318 18.4724 0.576628 97.9658 86.8596 87.2803
lowerback -12.2187 -1.9595 -1.90822
upperback -4.33572 -2.20495 0.127294
thorax 2.38513 -1.01474 0.899543
lowerneck -14.2319 7.52096 8.67528
upperneck 29.8201 12.2091 -8.42834
head 13.5168 5.61449 -2.71331
rclavicle 1.20513e-014 9.14409e-015
rhumerus -32.3724 4.06656 -90.3014
rradius 27.1568
rwrist 5.26852
rhand -15.9257 9.28583
rfingers 7.12502
rthumb 10.2718 -20.4433
lclavicle 1.20513e-014 9.14409e-015
lhumerus -36.1956 -11.7188 91.2129
lradius 32.0724
lwrist 9.87969
lhand -6.92067 26.2476
lfingers 7.12502
lthumb 18.9471 55.3448
rfemur -9.36472 -4.60431 14.97
rtibia 12.2048
rfoot -13.9951 -2.64564
rtoes -14.17
lfemur -9.78383 8.31335 -19.6028
ltibia 14.1081
lfoot -14.0236 -0.875187
ltoes -28.5189
30
root 1.86809 18.4824 0.579189 97.2846 86.8143 86.6429
lowerback -12.2528 -1.87322 -1.87327
upperback -4.32977 -2.09264 0.0956889
thorax 2.40401 -0.959209 0.862067
lowerneck -13.8212 7.943 8.99719
upperneck 30.1564 12.9862 -8.70383
head 13.7125 5.98303 -2.74778
rclavicle 2.0276e-014 1.59028e-015
rhumerus -32.4172 3.78771 -90.1888
rradius 27.1607
rwrist 5.13848
rhand -16.1104 9.71698
rfingers 7.12502
rthumb 10.0936 -20.0209
lclavicle 2.0276e-014 1.59028e-015
lhumerus -36.2929 -12.0806 91.3639
lradius 32.0696
lwrist 9.95714
lhand -7.19274 26.0305
lfingers 7.12502
lthumb 18.6854 55.1531
rfemur -9.20897 -4.46884 14.9165
rtibia 12.0411
rfoot -13.9754 -2.73505
rtoes -14.0032
lfemur -9.82371 8.37474 -19.6265
ltibia 14.2754
lfoot -14.0931 -0.992398
ltoes -26.844
31
root 1.87329 18.4857 0.579411 96.7991 86.8315 86.1627
lowerback -12.3608 -1.80635 -1.7164
upperback -4.3237 -2.01754 0.0486127
thorax 2.45983 -0.922671 0.732744
lowerneck -13.3293 8.33058 9.43293
upperneck 30.4183 13.7191 -9.07333
head 13.88 6.33734 -2.84839
rclavicle -1.07592e-014 0
rhumerus -32.4353 3.67937 -90.1999
rradius 27.2043
rwrist 4.9984
rhand -16.219 9.81325
rfingers 7.12502
rthumb 9.98887 -19.9297
lclavicle -1.07592e-014 0
lhumerus -36.3428 -12.3332 91.364
lradius 32.0607
lwrist 9.94569
lhand -7.09613 25.9064
lfingers 7.12502
lthumb 18.7784 55.02
rfemur -9.17245 -4.42498 14.937
rtibia 12.0072
rfoot -13.9746 -2.77176
rtoes -13.9838
lfemur -9.84839 8.23135 -19.5927
ltibia 14.3053
lfoot -14.0861 -0.872574
ltoes -25.915
32
root 1.88194 18.4767 0.575429 93.9825 86.7938 83.4098
lowerback -12.5218 -1.71503 -1.58892
upperback -4.24502 -1.90833 -0.000179186
thorax 2.62067 -0.871239 0.620727
lowerneck -12.8229 8.71932 9.76307
upperneck 30.6514 14.4526 -9.34282
head 14.0219 6.69282 -2.89173
rclavicle -1.88348e-014 -2.22639e-014
rhumerus -32.4044 3.52351 -90.1551
rradius 27.303
rwrist 4.99807
rhand -16.1987 9.81941
rfingers 7.12502
rthumb 10.0085 -19.9226
lclavicle -1.88348e-014 -2.22639e-014
lhumerus -36.3355 -12.5483 91.3876
lradius 32.1255
lwrist 10.0781
lhand -7.24155 26.1609
lfingers 7.12502
lthumb 18.6385 55.288
rfemur -9.14988 -4.37909 14.8645
rtibia 12.1057
rfoot -14.0003 -2.6627
rtoes -14.0237
lfemur -9.69298 8.22648 -19.6505
ltibia 14.2027
lfoot -14.0869 -0.699834
ltoes -26.618
